
<svg width="90px" height="35px" viewBox="0 0 90 35" version="1.1" xmlns="http://www.w3.org/2000/svg" xmlns:xlink="http://www.w3.org/1999/xlink">
    <!-- Generator: Sketch 44.1 (41455) - http://www.bohemiancoding.com/sketch -->
    <desc>Created with Sketch.</desc>
    <defs>
        <polygon id="path-1" points="17.8126813 10.3405317 17.8126813 0.165011657 7.91208791e-05 0.165011657 7.91208791e-05 10.3405317 17.8126813 10.3405317"></polygon>
    </defs>
    <g id="Page-1" stroke="none" stroke-width="1" fill="none" fill-rule="evenodd">
        <g id="passbook" transform="translate(-313.000000, -9.000000)">
            <g id="btn_okanereco2" transform="translate(313.000000, 9.000000)">
                <rect id="Rectangle-4" fill="#5BAA04" fill-rule="evenodd" x="0" y="0" width="90" height="35" rx="4"></rect>
                <text id="取り込み" font-family="HiraKakuProN-W6, Hiragino Kaku Gothic ProN" font-size="14" font-weight="500" line-spacing="13" fill="#FFFFFF">
                    <tspan x="27" y="22">取り込み</tspan>
                </text>
                <g id="Page-1" stroke-width="1" fill-rule="evenodd" transform="translate(6.000000, 9.000000)">
                    <path d="M8.91047473,6.7234992 C8.61298022,6.7234992 8.37166154,6.48487063 8.37166154,6.19076091 C8.37166154,5.89645234 8.61298022,5.65802263 8.91047473,5.65802263 C9.20796923,5.65802263 9.44928791,5.89645234 9.44928791,6.19076091 C9.44928791,6.48487063 9.20796923,6.7234992 8.91047473,6.7234992 M12.0480132,0.107124343 C11.5984088,-0.129515657 11.0463429,0.0389163429 10.8147165,0.483560914 C10.6467824,0.805709486 8.24289231,5.39751977 8.08306813,5.70415749 C7.85144176,6.1486032 8.02807912,6.70082949 8.47768352,6.93766834 C8.92709011,7.17430834 9.47935385,7.00567749 9.71098022,6.56123177 C9.86763956,6.26055977 12.2596615,1.69221463 12.4426286,1.3406352 C12.6742549,0.896189486 12.4976176,0.343764343 12.0480132,0.107124343" id="Fill-1" fill="#FFFFFF"></path>
                    <g id="Group-5" transform="translate(0.000000, 4.792437)">
                        <mask id="mask-2" fill="white">
                            <use xlink:href="#path-1"></use>
                        </mask>
                        <g id="Clip-4"></g>
                        <path d="M13.8347604,8.03339109 C13.8347604,8.38994194 13.547156,8.67927909 13.1924967,8.67927909 C12.8376396,8.67927909 12.550233,8.38994194 12.550233,8.03339109 L12.550233,4.18649966 C12.550233,3.82974994 12.8376396,3.54081051 13.1924967,3.54081051 C13.547156,3.54081051 13.8347604,3.82974994 13.8347604,4.18649966 L13.8347604,8.03339109 Z M11.6907824,8.03339109 C11.6907824,8.38994194 11.4033758,8.67927909 11.0485187,8.67927909 C10.6938593,8.67927909 10.4062549,8.38994194 10.4062549,8.03339109 L10.4062549,4.18649966 C10.4062549,3.82974994 10.6938593,3.54081051 11.0485187,3.54081051 C11.4033758,3.54081051 11.6907824,3.82974994 11.6907824,4.18649966 L11.6907824,8.03339109 Z M9.5468044,8.03339109 C9.5468044,8.38994194 9.2593978,8.67927909 8.90454066,8.67927909 C8.54988132,8.67927909 8.26227692,8.38994194 8.26227692,8.03339109 L8.26227692,4.18649966 C8.26227692,3.82974994 8.54988132,3.54081051 8.90454066,3.54081051 C9.2593978,3.54081051 9.5468044,3.82974994 9.5468044,4.18649966 L9.5468044,8.03339109 Z M7.40282637,8.03339109 C7.40282637,8.38994194 7.11541978,8.67927909 6.76056264,8.67927909 C6.4059033,8.67927909 6.1182989,8.38994194 6.1182989,8.03339109 L6.1182989,4.18649966 C6.1182989,3.82974994 6.4059033,3.54081051 6.76056264,3.54081051 C7.11541978,3.54081051 7.40282637,3.82974994 7.40282637,4.18649966 L7.40282637,8.03339109 Z M5.25904615,8.03339109 C5.25904615,8.38994194 4.97144176,8.67927909 4.61658462,8.67927909 C4.26192527,8.67927909 3.97432088,8.38994194 3.97432088,8.03339109 L3.97432088,4.18649966 C3.97432088,3.82974994 4.26192527,3.54081051 4.61658462,3.54081051 C4.97144176,3.54081051 5.25904615,3.82974994 5.25904615,4.18649966 L5.25904615,8.03339109 Z M16.6354418,0.165011657 L11.2065626,0.165011657 C10.7112659,1.1113728 10.2885626,1.91913051 10.2256615,2.0398368 C9.96970549,2.5312128 9.46511209,2.83645851 8.90869451,2.83645851 C8.66638681,2.83645851 8.42407912,2.77640366 8.20807912,2.66265737 C7.8548044,2.47672594 7.59330989,2.1651168 7.47185934,1.78529966 C7.34922198,1.40190309 7.38344176,0.995439086 7.56818901,0.640677943 C7.59509011,0.5893728 7.68568352,0.416168229 7.81702418,0.165011657 L1.1772,0.165011657 C0.528210989,0.165011657 7.91208791e-05,0.695960229 7.91208791e-05,1.34841051 C7.91208791e-05,1.99867337 0.524057143,2.52803109 1.15702418,2.53161051 L2.71095824,8.73774309 C2.71669451,8.75941851 2.85515604,9.27107794 3.09607912,9.58566994 C3.3375956,9.90145509 3.73952967,10.2884311 4.28328791,10.3397362 L13.521244,10.3405317 L13.5313319,10.3397362 C14.0748923,10.2884311 14.4770242,9.90145509 14.7185407,9.58566994 C14.9592659,9.27107794 15.0979253,8.75941851 15.1044527,8.73436251 L16.6575956,2.53180937 C17.2964967,2.51987794 17.8127604,1.99370194 17.8127604,1.34841051 C17.8127604,0.695960229 17.2846286,0.165011657 16.6354418,0.165011657 L16.6354418,0.165011657 Z" id="Fill-3" fill="#FFFFFF" mask="url(#mask-2)"></path>
                    </g>
                </g>
            </g>
        </g>
    </g>
</svg>